<?xml version="1.0" encoding="UTF-8" standalone="no"?>
<svg
   xmlns:dc="http://purl.org/dc/elements/1.1/"
   xmlns:cc="http://creativecommons.org/ns#"
   xmlns:rdf="http://www.w3.org/1999/02/22-rdf-syntax-ns#"
   xmlns:svg="http://www.w3.org/2000/svg"
   xmlns="http://www.w3.org/2000/svg"
   xmlns:sodipodi="http://sodipodi.sourceforge.net/DTD/sodipodi-0.dtd"
   xmlns:inkscape="http://www.inkscape.org/namespaces/inkscape"
   viewBox="0 0 128 128"
   version="1.1"
   id="svg4"
   sodipodi:docname="bootstrap.svg"
   inkscape:version="0.92.1 r15371">
  <metadata
     id="metadata10">
    <rdf:RDF>
      <cc:Work
         rdf:about="">
        <dc:format>image/svg+xml</dc:format>
        <dc:type
           rdf:resource="http://purl.org/dc/dcmitype/StillImage" />
        <dc:title></dc:title>
      </cc:Work>
    </rdf:RDF>
  </metadata>
  <defs
     id="defs8" />
  <sodipodi:namedview
     pagecolor="#ffffff"
     bordercolor="#666666"
     borderopacity="1"
     objecttolerance="10"
     gridtolerance="10"
     guidetolerance="10"
     inkscape:pageopacity="0"
     inkscape:pageshadow="2"
     inkscape:window-width="640"
     inkscape:window-height="489"
     id="namedview6"
     showgrid="false"
     inkscape:zoom="1.84375"
     inkscape:cx="-17.084746"
     inkscape:cy="64"
     inkscape:window-x="0"
     inkscape:window-y="0"
     inkscape:window-maximized="0"
     inkscape:current-layer="svg4" />
  <path
     fill="#5b4282"
     d="M75.701 65.603c-2.334-.768-5.694-.603-10.08-.603H48v23h18.844c2.944.0 5.012-.315 6.203-.535 2.099-.376 3.854-1.104 5.264-1.982 1.409-.876 2.568-2.205 3.478-3.881.908-1.676 1.363-3.637 1.363-5.83.0-2.568-.658-4.54-1.975-6.436-1.316-1.896-3.141-2.965-5.476-3.733zM73.282 55.087c2.317-.688 4.064-1.89 5.239-3.487 1.176-1.598 1.763-3.631 1.763-6.044.0-2.286-.549-4.314-1.646-6.054s-2.662-2.413-4.699-3.056c-2.037-.641-5.53-.446-10.48-.446H48v20h16.587c4.042.0 6.939-.38 8.695-.913zM126 18.625C126 9.443 118.557 2 109.375 2h-91.75C8.443 2 1 9.443 1 18.625v91.75C1 119.557 8.443 127 17.625 127h91.75c9.182.0 16.625-7.443 16.625-16.625v-91.75zm-35.447 66.12c-1.362 2.773-3.047 4.911-5.052 6.415-2.006 1.504-4.521 2.78-7.544 3.548-3.022.769-6.728 1.292-11.113 1.292h-27.844v-69h27.42c5.264.0 9.485.609 12.665 2.002 3.181 1.395 5.671 3.497 7.474 6.395 1.801 2.898 2.702 5.907 2.702 9.071.0 2.945-.8 5.708-2.397 8.308-1.598 2.602-4.011 4.694-7.237 6.292 4.166 1.222 7.37 3.304 9.61 6.248 2.24 2.945 3.36 6.422 3.36 10.432.0 3.227-.681 6.225-2.044 8.997z"
     id="path2" />
</svg>
